<?xml version="1.0" standalone="no"?>
<!DOCTYPE svg PUBLIC "-//W3C//DTD SVG 20010904//EN"
 "http://www.w3.org/TR/2001/REC-SVG-20010904/DTD/svg10.dtd">
<svg version="1.0" xmlns="http://www.w3.org/2000/svg"
 width="341.000000pt" height="166.000000pt" viewBox="0 0 341.000000 166.000000"
 preserveAspectRatio="xMidYMid meet">
<metadata>
Created by potrace 1.16, written by Peter Selinger 2001-2019
</metadata>
<g transform="translate(0.000000,166.000000) scale(0.100000,-0.100000)"
fill="#000000" stroke="none">
<path d="M665 1241 c-108 -28 -201 -119 -225 -220 -10 -44 -15 -49 -49 -60
-55 -16 -125 -83 -158 -149 -37 -76 -39 -183 -4 -252 31 -61 86 -116 146 -148
l50 -27 295 0 c293 0 295 0 345 25 63 31 115 83 146 146 34 69 34 189 1 254
-31 59 -94 123 -143 145 -21 10 -39 24 -39 31 0 7 -9 38 -21 69 -24 65 -88
133 -154 164 -50 24 -143 35 -190 22z m173 -92 c48 -24 88 -71 107 -126 15
-43 12 -53 -16 -53 -30 0 -99 -38 -144 -79 -22 -20 -81 -61 -132 -91 -95 -56
-111 -73 -92 -96 17 -20 37 -17 86 12 25 14 46 24 47 22 2 -1 0 -31 -4 -65
-16 -127 -103 -213 -217 -213 -111 0 -220 142 -198 257 19 104 112 193 200
193 21 0 25 5 25 28 0 55 30 131 66 168 74 73 175 89 272 43z m190 -254 c203
-85 177 -385 -38 -434 -25 -6 -110 -11 -188 -11 l-144 0 30 38 c45 57 61 95
72 169 5 37 10 73 10 78 1 6 15 -19 33 -55 33 -67 59 -83 80 -49 8 13 1 37
-28 103 -38 85 -38 86 -19 107 28 31 100 65 142 68 7 1 29 -6 50 -14z"/>
<path d="M2850 1195 l0 -45 71 0 71 0 -41 -49 c-32 -38 -41 -57 -41 -86 0 -37
0 -37 34 -31 35 7 85 -7 98 -27 4 -7 8 -24 8 -39 0 -52 -75 -66 -148 -29 l-39
20 -16 -35 c-23 -47 -22 -48 20 -68 57 -27 134 -32 188 -12 61 24 89 65 89
132 0 61 -20 96 -70 122 l-35 18 40 46 c34 38 41 53 41 87 l0 41 -135 0 -135
0 0 -45z"/>
<path d="M1718 1196 c-105 -30 -207 -119 -256 -224 -24 -51 -27 -69 -27 -167
0 -98 3 -116 27 -167 47 -101 133 -179 233 -211 154 -49 303 -19 418 83 l48
43 -57 58 -58 59 -31 -30 c-69 -67 -187 -89 -270 -51 -141 64 -181 258 -77
373 91 101 244 106 353 11 l34 -31 54 61 54 61 -51 47 c-70 64 -143 91 -257
95 -55 2 -108 -2 -137 -10z"/>
<path d="M2383 1196 c-66 -21 -111 -54 -140 -104 -23 -39 -27 -58 -27 -117 0
-136 53 -187 249 -241 130 -36 171 -71 149 -129 -9 -23 -57 -45 -98 -45 -49 0
-126 31 -185 74 l-50 35 -51 -64 -51 -65 28 -25 c48 -43 158 -92 232 -105 195
-33 346 57 358 213 11 132 -50 204 -217 253 -127 38 -153 49 -174 77 -16 22
-17 28 -5 53 31 65 118 68 232 10 l67 -34 41 59 c22 33 39 66 36 72 -7 20 -98
65 -162 82 -71 18 -174 19 -232 1z"/>
</g>
</svg>
